<?xml version="1.0" encoding="utf-8"?>
<!-- Generator: Adobe Illustrator 23.0.6, SVG Export Plug-In . SVG Version: 6.00 Build 0)  -->
<svg version="1.1" id="Layer_1" xmlns="http://www.w3.org/2000/svg" xmlns:xlink="http://www.w3.org/1999/xlink" x="0px" y="0px"
	 viewBox="0 0 85.9 89.3" style="enable-background:new 0 0 85.9 89.3;" xml:space="preserve">
<g>
	<path d="M85.3,26.7c-5.3,0-9.6-4.3-9.6-9.6c0-0.3-0.3-0.6-0.6-0.6s-0.6,0.3-0.6,0.6c0,5.3-4.3,9.6-9.6,9.6c-0.3,0-0.6,0.3-0.6,0.6
		c0,0.3,0.3,0.6,0.6,0.6c5.3,0,9.6,4.3,9.6,9.6c0,0.3,0.3,0.6,0.6,0.6s0.6-0.3,0.6-0.6c0-5.3,4.3-9.6,9.6-9.6c0.3,0,0.6-0.3,0.6-0.6
		C85.9,26.9,85.6,26.7,85.3,26.7z M75.1,33.9c-1.1-3.1-3.5-5.5-6.6-6.6c3.1-1.1,5.5-3.5,6.6-6.6c1.1,3.1,3.5,5.5,6.6,6.6
		C78.7,28.3,76.2,30.8,75.1,33.9z"/>
	<path d="M63.9,37.6c-4.1,0-7.5-3.4-7.5-7.5c0-0.3-0.2-0.5-0.5-0.5s-0.5,0.2-0.5,0.5c0,4.1-3.4,7.5-7.5,7.5c-0.3,0-0.5,0.2-0.5,0.5
		c0,0.3,0.2,0.5,0.5,0.5c4.1,0,7.5,3.3,7.5,7.5c0,0.3,0.2,0.5,0.5,0.5s0.5-0.2,0.5-0.5c0-4.1,3.3-7.5,7.5-7.5c0.3,0,0.5-0.2,0.5-0.5
		C64.4,37.8,64.1,37.6,63.9,37.6z M55.9,43.2c-0.8-2.4-2.8-4.3-5.2-5.1c2.4-0.8,4.3-2.8,5.2-5.2c0.8,2.4,2.7,4.3,5.1,5.2
		C58.7,38.9,56.8,40.8,55.9,43.2z"/>
	<path d="M71.3,78.1c-1.1,0.1-2.1,0.2-3.2,0.2c-18.5,0-33.6-15.1-33.6-33.6S49.6,11,68.1,11c1,0,2.1,0,3.2,0.2c0.5,0,0.9-0.2,1-0.6
		c0.2-0.4,0-0.9-0.3-1.2C64.1,3.2,54.7,0,44.6,0C20,0,0,20,0,44.6s20,44.6,44.6,44.6c10,0,19.5-3.2,27.4-9.4
		c0.4-0.3,0.5-0.7,0.3-1.2S71.8,78,71.3,78.1z M66.4,8c0.6,0.3,1.1,0.7,1.7,1c-19.6,0-35.5,16-35.5,35.6c0,10.1,4.2,19.2,11,25.7
		c0.6,0.6,1,0.8,1.9,1.7c5.4,4.5,12.2,7.5,19.7,8.1c0.2,0.1,0.9,0.1,1,0.1c0.7,0,1.3,0.1,2,0.1c-2.8,1.9-5.9,3.4-9.1,4.5
		c-1,0.4-1.2,0.6-1.9,0.6c-3.9,1.2-8,1.8-12.3,1.9c-0.8,0-0.9,0-1.8,0c-15.2-0.5-28.3-9-35.4-21.4c0.1,0-0.8-1.3-1-1.8
		C3.7,58.2,2,51.6,2,44.6c0-0.4,0-0.7,0-1.1c0-0.4,0-0.6,0-1.2c0.4-7.1,2.5-13.8,6-19.6c0.4-0.5,0.8-1.3,1.2-2
		c1.4-2.1,3.1-4.1,4.8-5.9c0.3-0.3,1.3-1.4,1.8-1.8c2-1.8,4.2-3.5,6.5-4.9c0.7-0.3,0.4-0.2,1.2-0.7C29.8,4,37,2,44.6,2
		c7,0,13.6,1.7,19.6,4.8"/>
</g>
</svg>
