<?xml version="1.0" encoding="utf-8"?>
<!-- Generator: Adobe Illustrator 23.0.6, SVG Export Plug-In . SVG Version: 6.00 Build 0)  -->
<svg version="1.1" id="Layer_1" xmlns="http://www.w3.org/2000/svg" xmlns:xlink="http://www.w3.org/1999/xlink" x="0px" y="0px"
	 viewBox="0 0 82 82" style="enable-background:new 0 0 82 82;" xml:space="preserve">
<g>
	<path d="M41,20.5c-11.3,0-20.5,9.2-20.5,20.5S29.7,61.5,41,61.5S61.5,52.3,61.5,41S52.3,20.5,41,20.5z M41,59.5
		c-10.2,0-18.5-8.3-18.5-18.5S30.8,22.5,41,22.5S59.5,30.8,59.5,41S51.2,59.5,41,59.5z"/>
	<path d="M33.1,28.3C28.7,31,26,35.8,26,41c0,0.6,0.4,1,1,1s1-0.4,1-1c0-4.5,2.3-8.6,6.1-11c0.5-0.3,0.6-0.9,0.3-1.4
		C34.2,28.1,33.6,28,33.1,28.3z"/>
	<path d="M40,26.1c-0.7,0-1.4,0.1-2.1,0.3c-0.5,0.1-0.9,0.6-0.8,1.2c0.1,0.5,0.5,0.8,1,0.8c0.1,0,0.1,0,0.2,0
		c0.6-0.1,1.2-0.2,1.8-0.2c0.6,0,1-0.5,0.9-1.1C41.1,26.4,40.6,26,40,26.1z"/>
	<path d="M57.6,24.1c0.3,0,0.5-0.1,0.7-0.3l7.6-7.6c0.4-0.4,0.4-1,0-1.4s-1-0.4-1.4,0l-7.6,7.6c-0.4,0.4-0.4,1,0,1.4
		C57.1,24,57.4,24.1,57.6,24.1z"/>
	<path d="M59.6,56.9c-0.4-0.4-1-0.4-1.4,0s-0.4,1,0,1.4l7.6,7.6c0.2,0.2,0.5,0.3,0.7,0.3s0.5-0.1,0.7-0.3c0.4-0.4,0.4-1,0-1.4
		L59.6,56.9z"/>
	<path d="M23.7,58.2l-7.6,7.6c-0.4,0.4-0.4,1,0,1.4c0.2,0.2,0.5,0.3,0.7,0.3s0.5-0.1,0.7-0.3l7.6-7.6c0.4-0.4,0.4-1,0-1.4
		S24.1,57.8,23.7,58.2z"/>
	<path d="M22.4,25.1c0.2,0.2,0.5,0.3,0.7,0.3s0.5-0.1,0.7-0.3c0.4-0.4,0.4-1,0-1.4l-7.6-7.6c-0.4-0.4-1-0.4-1.4,0s-0.4,1,0,1.4
		L22.4,25.1z"/>
	<path d="M76,39.1H65.4c-0.6,0-1,0.4-1,1s0.4,1,1,1H76c0.6,0,1-0.4,1-1S76.5,39.1,76,39.1z"/>
	<path d="M81,39.1h-1.3c-0.6,0-1,0.4-1,1s0.4,1,1,1H81c0.6,0,1-0.4,1-1S81.6,39.1,81,39.1z"/>
	<path d="M41.9,64.4c-0.6,0-1,0.4-1,1V76c0,0.6,0.4,1,1,1s1-0.4,1-1V65.4C42.9,64.8,42.4,64.4,41.9,64.4z"/>
	<path d="M41.9,78.7c-0.6,0-1,0.4-1,1V81c0,0.6,0.4,1,1,1s1-0.4,1-1v-1.3C42.9,79.2,42.4,78.7,41.9,78.7z"/>
	<path d="M17.6,41.9c0-0.6-0.4-1-1-1H6c-0.6,0-1,0.4-1,1s0.4,1,1,1h10.6C17.2,42.9,17.6,42.4,17.6,41.9z"/>
	<path d="M2.3,40.9H1c-0.6,0-1,0.4-1,1s0.4,1,1,1h1.3c0.6,0,1-0.4,1-1S2.8,40.9,2.3,40.9z"/>
	<path d="M40.1,17.6c0.6,0,1-0.4,1-1V6c0-0.6-0.4-1-1-1s-1,0.4-1,1v10.6C39.1,17.2,39.6,17.6,40.1,17.6z"/>
	<path d="M40.1,3.3c0.6,0,1-0.4,1-1V1c0-0.6-0.4-1-1-1s-1,0.4-1,1v1.3C39.1,2.8,39.6,3.3,40.1,3.3z"/>
</g>
</svg>
