<?xml version="1.0" encoding="utf-8"?>
<!-- Generator: Adobe Illustrator 23.0.6, SVG Export Plug-In . SVG Version: 6.00 Build 0)  -->
<svg version="1.1" id="Layer_1" xmlns="http://www.w3.org/2000/svg" xmlns:xlink="http://www.w3.org/1999/xlink" x="0px" y="0px"
	 viewBox="0 0 82 58.2" style="enable-background:new 0 0 82 58.2;" xml:space="preserve">
<g>
	<path d="M34.8,50.1h-1.4c-0.6,0-1,0.4-1,1s0.4,1,1,1h1.4c0.6,0,1-0.4,1-1S35.4,50.1,34.8,50.1z"/>
	<path d="M29.1,50.1H12.2c-2.3,0-4.1-1.9-4.1-4.1c0-0.6-0.4-1-1-1s-1,0.4-1,1c0,3.4,2.8,6.1,6.1,6.1h16.8c0.6,0,1-0.4,1-1
		S29.6,50.1,29.1,50.1z"/>
	<path d="M73.4,33c0.4-1.6,0.6-3.2,0.6-4.9C74,17,65,8,53.9,8c-4.7,0-9.1,1.6-12.7,4.6c-1.3-0.3-2.6-0.4-4-0.5
		c0.2,0,0.3-0.1,0.4-0.2c0.4-0.4,0.4-1,0-1.4l-2.2-2.2c-0.4-0.4-1-0.4-1.4,0c-0.4,0.4-0.4,1,0,1.4l2.2,2.2c0.1,0.1,0.2,0.2,0.3,0.2
		c-0.1,0-0.1,0-0.2,0c-0.6,0-1.3,0-2,0.1c-3.1,0.3-6.1,1.2-8.9,2.6c-7.1,3.8-11.7,11.1-12.2,19.1c-0.4,0-0.8-0.1-1.2-0.1
		C5.5,33.8,0,39.2,0,46c0,6.7,5.5,12.2,12.2,12.2h49.2c8.5,0,15.5-6.9,15.5-15.5v-0.1c0,0,0,0,0,0c0-3.2-1-6.2-2.8-8.8
		C73.9,33.5,73.6,33.3,73.4,33z M53.9,10c10,0,18.1,8.1,18.1,18.1c0,1.1-0.1,2.1-0.3,3.1c-0.4-0.3-0.7-0.6-1.1-0.9
		c0,0-0.1,0-0.1-0.1c-0.4-0.3-0.8-0.5-1.2-0.8c-0.1-0.1-0.3-0.2-0.4-0.2c-0.3-0.2-0.6-0.3-0.9-0.5c-0.2-0.1-0.4-0.2-0.5-0.2
		c-0.3-0.1-0.6-0.2-0.9-0.3C66.4,28.1,66.2,28,66,28c-0.3-0.1-0.6-0.2-0.9-0.3c-0.2,0-0.4-0.1-0.6-0.1c-0.3-0.1-0.7-0.1-1-0.2
		c-0.2,0-0.3-0.1-0.5-0.1c-0.5-0.1-1-0.1-1.6-0.1c-1.1,0-2.1,0.1-3.2,0.4c-0.2-0.4-0.3-0.9-0.5-1.3c-0.1-0.1-0.1-0.3-0.2-0.4
		c-0.1-0.3-0.3-0.6-0.4-0.9c-0.1-0.2-0.2-0.3-0.3-0.5c-0.1-0.3-0.3-0.5-0.4-0.8c-0.1-0.2-0.2-0.3-0.3-0.5c-0.1-0.2-0.3-0.5-0.4-0.7
		c-0.1-0.2-0.2-0.3-0.3-0.5c-0.2-0.2-0.3-0.4-0.5-0.7c-0.1-0.2-0.2-0.3-0.4-0.5c-0.2-0.2-0.3-0.4-0.5-0.6c-0.1-0.1-0.3-0.3-0.4-0.4
		c-0.2-0.2-0.4-0.4-0.6-0.6c-0.1-0.1-0.3-0.3-0.4-0.4c-0.2-0.2-0.4-0.4-0.6-0.6c-0.1-0.1-0.3-0.3-0.4-0.4c-0.2-0.2-0.5-0.4-0.7-0.6
		c-0.1-0.1-0.2-0.2-0.4-0.3c-0.3-0.2-0.6-0.4-0.8-0.6c-0.1-0.1-0.2-0.1-0.3-0.2c-0.4-0.3-0.8-0.5-1.2-0.8c0,0-0.1-0.1-0.1-0.1
		c-0.3-0.2-0.7-0.4-1.1-0.6c-0.1-0.1-0.3-0.1-0.4-0.2c-0.3-0.1-0.6-0.3-0.8-0.4c-0.2-0.1-0.3-0.1-0.5-0.2c-0.3-0.1-0.5-0.2-0.8-0.3
		c-0.2-0.1-0.4-0.1-0.5-0.2c-0.2-0.1-0.3-0.1-0.5-0.2C46.6,11.1,50.2,10,53.9,10z M74.9,42.7c0,7.4-6,13.5-13.5,13.5H12.2
		C6.6,56.2,2,51.6,2,46c0-5.6,4.6-10.2,10.2-10.2c0.6,0,1.2,0.1,1.9,0.2c0.3,0.1,0.6,0,0.8-0.2c0.2-0.2,0.4-0.5,0.4-0.8
		c0-7.7,4.3-14.8,11.2-18.5c2.5-1.3,5.2-2.1,8.1-2.4c0.7-0.1,1.3-0.1,1.8-0.1c1.6,0,3.2,0.2,4.8,0.6c7.3,1.7,13.2,7.3,15.4,14.5
		c0.2,0.5,0.7,0.8,1.2,0.7c1.2-0.3,2.4-0.5,3.6-0.5c0.5,0,1,0,1.4,0.1c3.3,0.4,6.4,2,8.7,4.5c0.3,0.3,0.6,0.7,0.9,1.1
		C74,37.2,74.9,39.9,74.9,42.7L74.9,42.7z"/>
	<path d="M53.9,5.1c0.6,0,1-0.4,1-1V1c0-0.6-0.4-1-1-1s-1,0.4-1,1v3.1C52.9,4.6,53.4,5.1,53.9,5.1z"/>
	<path d="M70.9,12.1c0.3,0,0.5-0.1,0.7-0.3l2.2-2.2c0.4-0.4,0.4-1,0-1.4s-1-0.4-1.4,0l-2.2,2.2c-0.4,0.4-0.4,1,0,1.4
		C70.4,12,70.6,12.1,70.9,12.1z"/>
	<path d="M81,27.1h-3.1c-0.6,0-1,0.4-1,1s0.4,1,1,1H81c0.6,0,1-0.4,1-1S81.6,27.1,81,27.1z"/>
</g>
</svg>
