<?xml version="1.0" encoding="utf-8"?>
<!-- Generator: Adobe Illustrator 23.0.6, SVG Export Plug-In . SVG Version: 6.00 Build 0)  -->
<svg version="1.1" id="Layer_1" xmlns="http://www.w3.org/2000/svg" xmlns:xlink="http://www.w3.org/1999/xlink" x="0px" y="0px"
	 viewBox="0 0 82 55.4" style="enable-background:new 0 0 82 55.4;" xml:space="preserve">
<g>
	<path d="M34.5,47.4h-1.4c-0.6,0-1,0.4-1,1s0.4,1,1,1h1.4c0.6,0,1-0.4,1-1S35.1,47.4,34.5,47.4z"/>
	<path d="M28.8,47.4H12.1c-2.3,0-4.1-1.8-4.1-4.1c0-0.6-0.4-1-1-1s-1,0.4-1,1c0,3.4,2.7,6.1,6.1,6.1h16.7c0.6,0,1-0.4,1-1
		S29.4,47.4,28.8,47.4z"/>
	<path d="M81.6,23c-0.4-0.3-0.9-0.2-1.2,0.1c-1,0.9-2.2,1.6-3.6,2c-5.4,1.8-11.3-1.2-13.1-6.7C61.9,13,64.9,7.1,70.3,5.3
		c1.3-0.4,2.7-0.6,4.1-0.5c0.4,0,0.9-0.2,1-0.7s0-0.9-0.4-1.2C70.5,0,64.8-0.8,59.6,0.9c-5.6,1.8-10,6.4-11.7,12
		c-3.6-2.2-7.6-3.3-11.8-3.3c-12.2,0-22.2,9.6-22.9,21.6c-0.4,0-0.8-0.1-1.1-0.1C5.4,31.2,0,36.6,0,43.3s5.4,12.1,12.1,12.1h48.8
		c8.5,0,15.3-6.9,15.3-15.3c0-2.4-0.6-4.8-1.7-6.9c3.4-2.1,6-5.2,7.3-9C82.1,23.7,81.9,23.2,81.6,23z M60.9,53.4H12.1
		C6.5,53.4,2,48.9,2,43.3s4.5-10.1,10.1-10.1c0.6,0,1.2,0.1,1.9,0.2c0.3,0.1,0.6,0,0.8-0.2c0.2-0.2,0.4-0.5,0.4-0.8
		c0.1-11.4,9.4-20.8,20.9-20.8c4.3,0,8.4,1.3,11.9,3.7c3.9,2.7,6.8,6.7,8.2,11.2c0.2,0.5,0.7,0.8,1.2,0.7c1.2-0.3,2.4-0.5,3.6-0.5
		c0.6,0,1.2,0,1.7,0.1c4,0.5,7.6,2.9,9.7,6.4c1.2,2,1.9,4.4,1.9,6.8C74.3,47.4,68.3,53.4,60.9,53.4z M73.6,31.4
		C73.6,31.4,73.5,31.4,73.6,31.4c-0.1-0.2-0.2-0.3-0.3-0.4c-0.1-0.2-0.3-0.4-0.4-0.5c-0.1-0.1-0.2-0.3-0.3-0.4
		c-0.1-0.1-0.2-0.3-0.4-0.4c-0.1-0.1-0.3-0.3-0.4-0.4c-0.1-0.1-0.1-0.1-0.2-0.2c-0.6-0.6-1.2-1.1-1.9-1.6c0,0-0.1,0-0.1-0.1
		c-1.2-0.9-2.6-1.5-4-2c-0.1,0-0.1,0-0.2-0.1c-0.3-0.1-0.5-0.2-0.8-0.2c-0.1,0-0.2,0-0.2-0.1c-0.3-0.1-0.7-0.1-1-0.2
		c-0.2,0-0.4-0.1-0.7-0.1c-0.1,0-0.3,0-0.4,0c-0.3,0-0.5,0-0.8-0.1c-0.1,0-0.2,0-0.3,0c-0.1,0-0.2,0-0.4,0c-0.1,0-0.2,0-0.3,0
		c-0.3,0-0.6,0-0.9,0c-0.2,0-0.3,0-0.5,0c-0.5,0.1-0.9,0.1-1.4,0.2c-0.2-0.6-0.4-1.1-0.6-1.7c-0.1-0.2-0.2-0.3-0.2-0.5
		c-0.2-0.4-0.3-0.7-0.5-1.1c-0.1-0.2-0.2-0.4-0.3-0.6c-0.2-0.3-0.4-0.6-0.6-0.9c-0.1-0.2-0.3-0.4-0.4-0.6c-0.2-0.3-0.4-0.6-0.6-0.8
		c-0.2-0.2-0.3-0.4-0.5-0.6c-0.2-0.3-0.4-0.5-0.6-0.8c-0.2-0.2-0.4-0.4-0.5-0.6c-0.2-0.2-0.4-0.5-0.7-0.7c-0.2-0.2-0.4-0.4-0.6-0.6
		c-0.2-0.2-0.5-0.4-0.7-0.6c-0.2-0.2-0.4-0.3-0.6-0.5c-0.2-0.1-0.3-0.3-0.5-0.4C51,8.8,55,4.5,60.2,2.8c3.6-1.2,7.3-1,10.7,0.3
		c-0.4,0.1-0.8,0.2-1.2,0.3c-6.5,2.1-10.1,9.1-7.9,15.6c2.1,6.5,9.1,10.1,15.6,7.9c0.4-0.1,0.8-0.3,1.1-0.4
		C77.3,28.5,75.6,30.2,73.6,31.4z"/>
</g>
</svg>
