<?xml version="1.0" encoding="utf-8"?>
<!-- Generator: Adobe Illustrator 23.0.6, SVG Export Plug-In . SVG Version: 6.00 Build 0)  -->
<svg version="1.1" id="Layer_1" xmlns="http://www.w3.org/2000/svg" xmlns:xlink="http://www.w3.org/1999/xlink" x="0px" y="0px"
	 viewBox="0 0 82 49.2" style="enable-background:new 0 0 82 49.2;" xml:space="preserve">
<g>
	<path d="M37.1,40.7h-1.5c-0.6,0-1,0.4-1,1s0.4,1,1,1h1.5c0.6,0,1-0.4,1-1S37.7,40.7,37.1,40.7z"/>
	<path d="M31,40.7H13c-2.5,0-4.5-2-4.5-4.5c0-0.6-0.4-1-1-1s-1,0.4-1,1c0,3.6,2.9,6.5,6.5,6.5h18c0.6,0,1-0.4,1-1S31.5,40.7,31,40.7
		z"/>
	<path d="M65.6,16.3c-1.2,0-2.3,0.1-3.5,0.4C58.7,6.8,49.3,0,38.8,0C25.7,0,15,10.3,14.3,23.3c-0.4,0-0.9-0.1-1.3-0.1
		c-7.2,0-13,5.8-13,13s5.8,13,13,13h52.6c9.1,0,16.4-7.4,16.4-16.4C82,23.7,74.6,16.3,65.6,16.3z M65.6,47.2H13c-6.1,0-11-4.9-11-11
		s4.9-11,11-11c0.7,0,1.4,0.1,2.1,0.2c0.3,0.1,0.6,0,0.8-0.2c0.2-0.2,0.4-0.5,0.4-0.8C16.3,12.1,26.4,2,38.8,2
		c9.9,0,18.8,6.6,21.6,16.1c0.2,0.5,0.7,0.8,1.2,0.7c1.3-0.4,2.6-0.5,3.9-0.5c8,0,14.4,6.5,14.4,14.4S73.5,47.2,65.6,47.2z"/>
</g>
</svg>
