<?xml version="1.0" encoding="utf-8"?>
<!-- Generator: Adobe Illustrator 23.0.6, SVG Export Plug-In . SVG Version: 6.00 Build 0)  -->
<svg version="1.1" id="Layer_1" xmlns="http://www.w3.org/2000/svg" xmlns:xlink="http://www.w3.org/1999/xlink" x="0px" y="0px"
	 viewBox="0 0 82 75.2" style="enable-background:new 0 0 82 75.2;" xml:space="preserve">
<g>
	<path d="M37.1,40.7h-1.5c-0.6,0-1,0.4-1,1s0.4,1,1,1h1.5c0.6,0,1-0.4,1-1S37.7,40.7,37.1,40.7z"/>
	<path d="M31,40.7H13c-2.5,0-4.5-2-4.5-4.5c0-0.6-0.4-1-1-1s-1,0.4-1,1c0,3.6,2.9,6.5,6.5,6.5h18c0.6,0,1-0.4,1-1S31.5,40.7,31,40.7
		z"/>
	<path d="M65.6,16.3c-1.2,0-2.3,0.1-3.5,0.4C58.7,6.8,49.3,0,38.8,0C25.7,0,15,10.3,14.3,23.3C6.5,22.5,0,28.6,0,36.2
		c0,7.2,5.8,13,13,13h52.6c9.1,0,16.4-7.4,16.4-16.4C82,23.7,74.6,16.3,65.6,16.3z M65.6,47.2H13c-6.1,0-11-4.9-11-11
		c0-6.1,4.9-11,11-11c0.7,0,1.4,0.1,2.1,0.2c0.3,0.1,0.6,0,0.8-0.2c0.2-0.2,0.4-0.5,0.4-0.8C16.3,12.1,26.4,2,38.8,2
		c9.9,0,18.8,6.6,21.6,16.1c0.2,0.5,0.7,0.8,1.2,0.7c1.3-0.4,2.6-0.5,3.9-0.5c8,0,14.4,6.5,14.4,14.4S73.5,47.2,65.6,47.2z"/>
	<path d="M18.1,54.4c-0.6,0-1,0.4-1,1v1.4c0,0.6,0.4,1,1,1s1-0.4,1-1v-1.4C19.1,54.8,18.7,54.4,18.1,54.4z"/>
	<path d="M33.4,54.4c-0.6,0-1,0.4-1,1v1.4c0,0.6,0.4,1,1,1s1-0.4,1-1v-1.4C34.4,54.8,33.9,54.4,33.4,54.4z"/>
	<path d="M48.6,54.4c-0.6,0-1,0.4-1,1v1.4c0,0.6,0.4,1,1,1s1-0.4,1-1v-1.4C49.6,54.8,49.2,54.4,48.6,54.4z"/>
	<path d="M63.9,54.4c-0.6,0-1,0.4-1,1v1.4c0,0.6,0.4,1,1,1s1-0.4,1-1v-1.4C64.9,54.8,64.4,54.4,63.9,54.4z"/>
	<path d="M25.8,63c-0.6,0-1,0.4-1,1v1.4c0,0.6,0.4,1,1,1s1-0.4,1-1V64C26.8,63.4,26.3,63,25.8,63z"/>
	<path d="M41,63c-0.6,0-1,0.4-1,1v1.4c0,0.6,0.4,1,1,1s1-0.4,1-1V64C42,63.4,41.6,63,41,63z"/>
	<path d="M56.2,63c-0.6,0-1,0.4-1,1v1.4c0,0.6,0.4,1,1,1s1-0.4,1-1V64C57.2,63.4,56.8,63,56.2,63z"/>
	<path d="M33.4,71.9c-0.6,0-1,0.4-1,1v1.4c0,0.6,0.4,1,1,1s1-0.4,1-1v-1.4C34.4,72.3,33.9,71.9,33.4,71.9z"/>
	<path d="M48.6,71.9c-0.6,0-1,0.4-1,1v1.4c0,0.6,0.4,1,1,1s1-0.4,1-1v-1.4C49.6,72.3,49.2,71.9,48.6,71.9z"/>
</g>
</svg>
