<?xml version="1.0" encoding="utf-8"?>
<!-- Generator: Adobe Illustrator 23.0.6, SVG Export Plug-In . SVG Version: 6.00 Build 0)  -->
<svg version="1.1" id="Layer_1" xmlns="http://www.w3.org/2000/svg" xmlns:xlink="http://www.w3.org/1999/xlink" x="0px" y="0px"
	 viewBox="0 0 82 72.5" style="enable-background:new 0 0 82 72.5;" xml:space="preserve">
<g>
	<path d="M37.1,40.7h-1.5c-0.6,0-1,0.4-1,1s0.4,1,1,1h1.5c0.6,0,1-0.4,1-1S37.7,40.7,37.1,40.7z"/>
	<path d="M31,40.7H13c-2.5,0-4.5-2-4.5-4.5c0-0.6-0.4-1-1-1s-1,0.4-1,1c0,3.6,2.9,6.5,6.5,6.5h18c0.6,0,1-0.4,1-1S31.5,40.7,31,40.7
		z"/>
	<path d="M65.6,16.3c-1.2,0-2.3,0.1-3.5,0.4C58.7,6.8,49.3,0,38.8,0C25.7,0,15,10.3,14.3,23.3C6.5,22.5,0,28.6,0,36.2
		c0,7.2,5.8,13,13,13h0.9l-2.5,5.6c-0.2,0.5,0,1.1,0.5,1.3c0.1,0.1,0.3,0.1,0.4,0.1c0.4,0,0.7-0.2,0.9-0.6l2.8-6.4h7.2l-2,4.4
		c-0.2,0.5,0,1.1,0.5,1.3C21.9,55,22,55,22.2,55c0.4,0,0.7-0.2,0.9-0.6l2.3-5.3h7.2L32,50.5c-0.2,0.5,0,1.1,0.5,1.3
		c0.1,0.1,0.3,0.1,0.4,0.1c0.4,0,0.7-0.2,0.9-0.6l1-2.2H42l-6.5,14.7c-0.2,0.5,0,1.1,0.5,1.3c0.1,0.1,0.3,0.1,0.4,0.1
		c0.4,0,0.7-0.2,0.9-0.6l6.9-15.5h7.2l-2,4.4c-0.2,0.5,0,1.1,0.5,1.3C50,55,50.2,55,50.3,55c0.4,0,0.7-0.2,0.9-0.6l2.3-5.3h7.2
		l-0.6,1.4c-0.2,0.5,0,1.1,0.5,1.3c0.1,0.1,0.3,0.1,0.4,0.1c0.4,0,0.7-0.2,0.9-0.6l1-2.2h2.6c9.1,0,16.4-7.4,16.4-16.4
		S74.6,16.3,65.6,16.3z M65.6,47.2h-1.7l0,0c0.2-0.5,0-1.1-0.5-1.3c-0.5-0.2-1.1,0-1.3,0.5l-0.4,0.8h-7.2l0,0c0.2-0.5,0-1.1-0.5-1.3
		c-0.5-0.2-1.1,0-1.3,0.5l-0.4,0.8h-7.2l0,0c0.2-0.5,0-1.1-0.5-1.3c-0.5-0.2-1.1,0-1.3,0.5l-0.4,0.8h-7.2l0,0c0.2-0.5,0-1.1-0.5-1.3
		c-0.5-0.2-1.1,0-1.3,0.5l-0.4,0.8h-7.2l0,0c0.2-0.5,0-1.1-0.5-1.3c-0.5-0.2-1.1,0-1.3,0.5l-0.4,0.8h-7.2l0,0c0.2-0.5,0-1.1-0.5-1.3
		c-0.5-0.2-1.1,0-1.3,0.5l-0.4,0.8H13c-6.1,0-11-4.9-11-11s4.9-11,11-11c0.7,0,1.4,0.1,2.1,0.2c0.3,0.1,0.6,0,0.8-0.2
		c0.2-0.2,0.4-0.5,0.4-0.8C16.3,12.1,26.4,2,38.8,2c9.9,0,18.8,6.6,21.6,16.1c0.2,0.5,0.7,0.8,1.2,0.7c1.3-0.4,2.6-0.5,3.9-0.5
		c8,0,14.4,6.5,14.4,14.4S73.5,47.2,65.6,47.2z"/>
	<path d="M10.6,59c-0.5-0.2-1.1,0-1.3,0.5l-1.1,2.5c-0.2,0.5,0,1.1,0.5,1.3c0.1,0.1,0.3,0.1,0.4,0.1c0.4,0,0.7-0.2,0.9-0.6l1.1-2.5
		C11.3,59.8,11.1,59.2,10.6,59z"/>
	<path d="M28.8,60.2c-0.5-0.2-1.1,0-1.3,0.5L27,61.8c-0.2,0.5,0,1.1,0.5,1.3c0.1,0.1,0.3,0.1,0.4,0.1c0.4,0,0.7-0.2,0.9-0.6l0.5-1.1
		C29.5,61,29.3,60.4,28.8,60.2z"/>
	<path d="M31.4,54.4c-0.5-0.2-1.1,0-1.3,0.5l-0.8,1.9c-0.2,0.5,0,1.1,0.5,1.3c0.1,0.1,0.3,0.1,0.4,0.1c0.4,0,0.7-0.2,0.9-0.6
		l0.8-1.9C32.1,55.2,31.9,54.6,31.4,54.4z"/>
	<path d="M34.2,69.1c-0.5-0.2-1.1,0-1.3,0.5l-0.7,1.5c-0.2,0.5,0,1.1,0.5,1.3c0.1,0.1,0.3,0.1,0.4,0.1c0.4,0,0.7-0.2,0.9-0.6
		l0.7-1.5C35,69.9,34.8,69.3,34.2,69.1z"/>
	<path d="M57.5,59c-0.5-0.2-1.1,0-1.3,0.5l-1.6,3.7c-0.2,0.5,0,1.1,0.5,1.3c0.1,0.1,0.3,0.1,0.4,0.1c0.4,0,0.7-0.2,0.9-0.6l1.6-3.7
		C58.2,59.8,58,59.2,57.5,59z"/>
	<path d="M59.5,54.5c-0.5-0.2-1.1,0-1.3,0.5l-0.4,0.8c-0.2,0.5,0,1.1,0.5,1.3c0.1,0.1,0.3,0.1,0.4,0.1c0.4,0,0.7-0.2,0.9-0.6
		l0.4-0.8C60.2,55.3,60,54.8,59.5,54.5z"/>
</g>
</svg>
