<?xml version="1.0" encoding="utf-8"?>
<!-- Generator: Adobe Illustrator 23.0.6, SVG Export Plug-In . SVG Version: 6.00 Build 0)  -->
<svg version="1.1" id="Layer_1" xmlns="http://www.w3.org/2000/svg" xmlns:xlink="http://www.w3.org/1999/xlink" x="0px" y="0px"
	 viewBox="0 0 82 76.9" style="enable-background:new 0 0 82 76.9;" xml:space="preserve">
<g>
	<path d="M37.1,40.7h-1.5c-0.6,0-1,0.4-1,1s0.4,1,1,1h1.5c0.6,0,1-0.4,1-1S37.7,40.7,37.1,40.7z"/>
	<path d="M31,40.7H13c-2.5,0-4.5-2-4.5-4.5c0-0.6-0.4-1-1-1s-1,0.4-1,1c0,3.6,2.9,6.5,6.5,6.5h18c0.6,0,1-0.4,1-1S31.5,40.7,31,40.7
		z"/>
	<path d="M65.6,16.3c-1.1,0-2.3,0.1-3.5,0.4C58.7,6.8,49.3,0,38.8,0C25.7,0,15,10.3,14.3,23.3C6.5,22.5,0,28.6,0,36.2
		c0,7.2,5.8,13,13,13h6.1v12.6c0,0.6,0.4,1,1,1s1-0.4,1-1V49.2h8.4v8c0,0.6,0.4,1,1,1s1-0.4,1-1v-8H40v20.1c0,0.6,0.4,1,1,1
		s1-0.4,1-1V49.2h8.4v8.6c0,0.6,0.4,1,1,1s1-0.4,1-1v-8.6h8.4v12.6c0,0.6,0.4,1,1,1s1-0.4,1-1V49.2h2.7c9.1,0,16.4-7.4,16.4-16.4
		C82,23.7,74.6,16.3,65.6,16.3z M65.6,47.2H13c-6.1,0-11-4.9-11-11s4.9-11,11-11c0.7,0,1.4,0.1,2.1,0.2c0.3,0.1,0.6,0,0.8-0.2
		c0.2-0.2,0.4-0.5,0.4-0.8C16.3,12.1,26.4,2,38.8,2c9.9,0,18.8,6.6,21.6,16.1c0.2,0.5,0.7,0.8,1.2,0.7c1.3-0.4,2.6-0.5,3.9-0.5
		c8,0,14.4,6.5,14.4,14.4S73.5,47.2,65.6,47.2z"/>
	<path d="M20.1,65.4c-0.6,0-1,0.4-1,1v0.9c0,0.6,0.4,1,1,1s1-0.4,1-1v-0.9C21.1,65.9,20.7,65.4,20.1,65.4z"/>
	<path d="M61.9,65.4c-0.6,0-1,0.4-1,1v0.9c0,0.6,0.4,1,1,1s1-0.4,1-1v-0.9C62.9,65.9,62.4,65.4,61.9,65.4z"/>
	<path d="M30.6,60.7c-0.6,0-1,0.4-1,1v0.7c0,0.6,0.4,1,1,1s1-0.4,1-1v-0.7C31.6,61.2,31.1,60.7,30.6,60.7z"/>
	<path d="M41,73.7c-0.6,0-1,0.4-1,1v1.2c0,0.6,0.4,1,1,1s1-0.4,1-1v-1.2C42,74.1,41.6,73.7,41,73.7z"/>
	<path d="M51.4,61.9c-0.6,0-1,0.4-1,1v0.6c0,0.6,0.4,1,1,1s1-0.4,1-1v-0.6C52.4,62.4,52,61.9,51.4,61.9z"/>
</g>
</svg>
