<?xml version="1.0" encoding="utf-8"?>
<!-- Generator: Adobe Illustrator 23.0.6, SVG Export Plug-In . SVG Version: 6.00 Build 0)  -->
<svg version="1.1" id="Layer_1" xmlns="http://www.w3.org/2000/svg" xmlns:xlink="http://www.w3.org/1999/xlink" x="0px" y="0px"
	 viewBox="0 0 82 77.5" style="enable-background:new 0 0 82 77.5;" xml:space="preserve">
<g>
	<path d="M37.1,40.7h-1.5c-0.6,0-1,0.4-1,1s0.4,1,1,1h1.5c0.6,0,1-0.4,1-1S37.7,40.7,37.1,40.7z"/>
	<path d="M31,40.7H13c-2.5,0-4.5-2-4.5-4.5c0-0.6-0.4-1-1-1s-1,0.4-1,1c0,3.6,2.9,6.5,6.5,6.5h18c0.6,0,1-0.4,1-1S31.5,40.7,31,40.7
		z"/>
	<path d="M65.6,49.2c9.1,0,16.4-7.4,16.4-16.4s-7.4-16.4-16.4-16.4c-1.2,0-2.3,0.1-3.5,0.4C58.7,6.8,49.3,0,38.8,0
		C25.7,0,15,10.3,14.3,23.3c-0.4,0-0.9-0.1-1.3-0.1c-7.2,0-13,5.8-13,13s5.8,13,13,13h5.8l-3.2,8.4c-0.1,0.3-0.1,0.7,0.1,0.9
		c0.2,0.3,0.5,0.4,0.8,0.4h3l-3.1,8.8c-0.2,0.5,0,1,0.5,1.2c0.2,0.1,0.3,0.1,0.5,0.1c0.3,0,0.6-0.1,0.8-0.4l11.9-14.7
		c0.2-0.3,0.3-0.7,0.1-1.1s-0.5-0.6-0.9-0.6h-2.2l1.7-3.1h7L31,61.7c-0.1,0.3-0.1,0.7,0.1,0.9c0.2,0.3,0.5,0.4,0.8,0.4h3.2
		l-4.6,13.1c-0.2,0.5,0,1,0.5,1.2c0.2,0.1,0.3,0.1,0.5,0.1c0.3,0,0.6-0.1,0.8-0.4l16.9-21c0.2-0.3,0.3-0.7,0.1-1.1s-0.5-0.6-0.9-0.6
		h-3.8l2.9-5.3H55l-3.2,8.4c-0.1,0.3-0.1,0.7,0.1,0.9c0.2,0.3,0.5,0.4,0.8,0.4h3l-3.1,8.8c-0.2,0.5,0,1,0.5,1.2
		c0.2,0.1,0.3,0.1,0.5,0.1c0.3,0,0.6-0.1,0.8-0.4l11.9-14.7c0.2-0.3,0.3-0.7,0.1-1.1s-0.5-0.6-0.9-0.6h-2.2l1.7-3.1H65.6z
		 M27.2,54.3l-6.9,8.5l1.6-4.6c0.1-0.3,0.1-0.6-0.1-0.9c-0.2-0.3-0.5-0.4-0.8-0.4h-3l3-7.7h5.6l-2,3.6c-0.2,0.3-0.2,0.7,0,1
		c0.2,0.3,0.5,0.5,0.9,0.5H27.2z M42,55c-0.2,0.3-0.2,0.7,0,1c0.2,0.3,0.5,0.5,0.9,0.5h3.4l-12,14.8l3.2-8.9
		c0.1-0.3,0.1-0.6-0.1-0.9c-0.2-0.3-0.5-0.4-0.8-0.4h-3.1l4.6-11.9h7.3L42,55z M63.4,54.3l-6.9,8.5l1.6-4.6c0.1-0.3,0.1-0.6-0.1-0.9
		c-0.2-0.3-0.5-0.4-0.8-0.4h-3l3-7.7h5.6l-2,3.6c-0.2,0.3-0.2,0.7,0,1c0.2,0.3,0.5,0.5,0.9,0.5H63.4z M56.5,47.2h-9.6h-9.6h-9h-8H13
		c-6.1,0-11-4.9-11-11s4.9-11,11-11c0.7,0,1.4,0.1,2.1,0.2c0.3,0.1,0.6,0,0.8-0.2c0.2-0.2,0.4-0.5,0.4-0.8C16.3,12.1,26.4,2,38.8,2
		c9.9,0,18.8,6.6,21.6,16.2c0.2,0.5,0.7,0.8,1.2,0.7c1.3-0.4,2.6-0.5,3.9-0.5c8,0,14.4,6.5,14.4,14.4s-6.5,14.4-14.4,14.4h-1.1H56.5
		z"/>
</g>
</svg>
