<?xml version="1.0" encoding="utf-8"?>
<!-- Generator: Adobe Illustrator 23.0.6, SVG Export Plug-In . SVG Version: 6.00 Build 0)  -->
<svg version="1.1" id="Layer_1" xmlns="http://www.w3.org/2000/svg" xmlns:xlink="http://www.w3.org/1999/xlink" x="0px" y="0px"
	 viewBox="0 0 82 65.5" style="enable-background:new 0 0 82 65.5;" xml:space="preserve">
<g>
	<path d="M41,0C21.1,0,0,3,0,8.6s21.1,8.6,41,8.6s41-3,41-8.6S60.9,0,41,0z M41,15.4c-24.2,0-39-4-39-6.8s14.8-6.8,39-6.8
		s39,4,39,6.8S65.2,15.4,41,15.4z"/>
	<path d="M75.6,19.6c-0.6,0-1,0.4-1,0.9c0,0.4-0.3,0.9-0.8,1.3c-0.4,0.3-0.4,0.9,0,1.2c0.2,0.2,0.5,0.3,0.7,0.3
		c0.3,0,0.5-0.1,0.7-0.2c0.9-0.8,1.4-1.7,1.4-2.6C76.6,19.9,76.1,19.6,75.6,19.6z"/>
	<path d="M67.6,26.2c0.5-0.1,0.8-0.6,0.7-1.1c-0.2-0.5-0.7-0.7-1.2-0.6c-6.5,1.7-16,2.7-26,2.7c-19.8,0-33.6-3.6-33.6-6.8
		c0-0.5-0.4-0.9-1-0.9s-1,0.4-1,0.9C5.4,26,23.8,29,41,29C51.2,29,60.9,28,67.6,26.2z"/>
	<path d="M68.5,30.7c-0.6,0-1,0.4-1,0.9c0,2.8-11.3,6-26.5,6s-26.5-3.2-26.5-6c0-0.5-0.4-0.9-1-0.9s-1,0.4-1,0.9
		c0,5,14.7,7.8,28.5,7.8s28.5-2.7,28.5-7.8C69.5,31.1,69.1,30.7,68.5,30.7z"/>
	<path d="M62.3,41.1c-0.6,0-1,0.4-1,0.9c0,2-7.7,4.8-20.3,4.8c-5.8,0-11.3-0.6-15.2-1.8c-0.5-0.1-1.1,0.1-1.3,0.5
		c-0.2,0.5,0.1,0.9,0.6,1.1c4.2,1.2,9.8,1.9,15.9,1.9c10.8,0,22.3-2.3,22.3-6.6C63.3,41.5,62.8,41.1,62.3,41.1z"/>
	<path d="M20.7,42c0-0.5-0.4-0.9-1-0.9s-1,0.4-1,0.9c0,0.6,0.2,1.1,0.6,1.6c0.2,0.3,0.5,0.4,0.8,0.4c0.2,0,0.4,0,0.6-0.1
		c0.5-0.3,0.6-0.8,0.3-1.2C20.8,42.4,20.7,42.2,20.7,42z"/>
	<path d="M57.4,51c-0.6,0-1,0.4-1,0.9C56.4,52.9,51,55,41,55s-15.4-2.1-15.4-3.2c0-0.5-0.4-0.9-1-0.9s-1,0.4-1,0.9
		c0,3.2,8.8,4.9,17.4,4.9s17.4-1.7,17.4-4.9C58.4,51.4,58,51,57.4,51z"/>
	<path d="M53.9,59.8c-0.6,0-1,0.4-1,0.9c0,1.3-4.7,3.1-11.9,3.1s-11.9-1.8-11.9-3.1c0-0.5-0.4-0.9-1-0.9s-1,0.4-1,0.9
		c0,3.2,7,4.8,13.9,4.8s13.9-1.7,13.9-4.8C54.9,60.2,54.5,59.8,53.9,59.8z"/>
</g>
</svg>
