<?xml version="1.0" encoding="utf-8"?>
<!-- Generator: Adobe Illustrator 23.0.6, SVG Export Plug-In . SVG Version: 6.00 Build 0)  -->
<svg version="1.1" id="Layer_1" xmlns="http://www.w3.org/2000/svg" xmlns:xlink="http://www.w3.org/1999/xlink" x="0px" y="0px"
	 viewBox="0 0 82 45.9" style="enable-background:new 0 0 82 45.9;" xml:space="preserve">
<g>
	<path d="M28.7,32.6c-0.6,0-1,0.4-1,1s0.4,1,1,1h1.2c0.6,0,1-0.4,1-1s-0.4-1-1-1H28.7z"/>
	<path d="M10.6,32.6c-1.9,0-3.4-1.5-3.4-3.4c0-0.6-0.4-1-1-1s-1,0.4-1,1c0,3,2.4,5.4,5.4,5.4H25c0.6,0,1-0.4,1-1s-0.4-1-1-1H10.6z"
		/>
	<path d="M52.7,37.8H10.6c-4.7,0-8.6-3.9-8.6-8.6c0-4.7,3.9-8.6,8.6-8.6c0.5,0,1.1,0.1,1.6,0.2c0.3,0.1,0.6,0,0.8-0.2
		c0.2-0.2,0.4-0.5,0.4-0.8C13.5,10,21.5,2,31.3,2c7.9,0,14.9,5.3,17.1,12.8c0.2,0.5,0.7,0.8,1.2,0.7c1-0.3,2-0.4,3.1-0.4
		c0.6,0,1-0.4,1-1s-0.4-1-1-1c-0.9,0-1.8,0.1-2.7,0.3C47.3,5.4,39.7,0,31.3,0C20.8,0,12.1,8.3,11.4,18.6c-0.3,0-0.6,0-0.8,0
		C4.8,18.6,0,23.4,0,29.2s4.8,10.6,10.6,10.6h42.1c0.6,0,1-0.4,1-1S53.3,37.8,52.7,37.8z"/>
	<path d="M57.2,22.4h13.7c4.9,0,8.8-4,8.8-8.8s-4-8.8-8.8-8.8s-8.8,4-8.8,8.8c0,0.6,0.4,1,1,1s1-0.4,1-1c0-3.8,3.1-6.8,6.8-6.8
		s6.8,3.1,6.8,6.8s-3.1,6.8-6.8,6.8H57.2c-0.6,0-1,0.4-1,1S56.6,22.4,57.2,22.4z"/>
	<path d="M75.1,32H47.7c-0.6,0-1,0.4-1,1s0.4,1,1,1h27.4c2.7,0,4.9,2.2,4.9,4.9s-2.2,4.9-4.9,4.9s-4.9-2.2-4.9-4.9c0-0.6-0.4-1-1-1
		s-1,0.4-1,1c0,3.8,3.1,6.9,6.9,6.9c3.8,0,6.9-3.1,6.9-6.9C82,35.2,78.9,32,75.1,32z"/>
	<path d="M51.8,22.4c0.6,0,1-0.4,1-1s-0.4-1-1-1H51c-0.6,0-1,0.4-1,1s0.4,1,1,1H51.8z"/>
	<path d="M46.7,27.2c0,0.6,0.4,1,1,1h27.7c0.6,0,1-0.4,1-1s-0.4-1-1-1H47.7C47.1,26.2,46.7,26.7,46.7,27.2z"/>
</g>
</svg>
